HIERARCHY
ROOT Hips
{
	OFFSET 0.00000 0.00000 0.00000
	CHANNELS 6 Xposition Yposition Zposition Zrotation Yrotation Xrotation 
	JOINT LHipJoint
	{
		OFFSET 0 0 0
		CHANNELS 3 Zrotation Yrotation Xrotation
		JOINT LeftUpLeg
		{
			OFFSET 3.13874 -1.57224 1.49786
			CHANNELS 3 Zrotation Yrotation Xrotation
			JOINT LeftLeg
			{
				OFFSET 2.10955 -5.79594 0.00000
				CHANNELS 3 Zrotation Yrotation Xrotation
				JOINT LeftFoot
				{
					OFFSET 2.41843 -6.64458 0.00000
					CHANNELS 3 Zrotation Yrotation Xrotation
					JOINT LeftToeBase
					{
						OFFSET 0.04713 -0.12948 1.66229
						CHANNELS 3 Zrotation Yrotation Xrotation
						End Site
						{
							OFFSET 0.00000 -0.00000 0.85167
						}
					}
				}
			}
		}
	}
	JOINT RHipJoint
	{
		OFFSET 0 0 0
		CHANNELS 3 Zrotation Yrotation Xrotation
		JOINT RightUpLeg
		{
			OFFSET -3.13988 -1.57224 1.49786
			CHANNELS 3 Zrotation Yrotation Xrotation
			JOINT RightLeg
			{
				OFFSET -2.15006 -5.90725 0.00000
				CHANNELS 3 Zrotation Yrotation Xrotation
				JOINT RightFoot
				{
					OFFSET -2.34496 -6.44273 0.00000
					CHANNELS 3 Zrotation Yrotation Xrotation
					JOINT RightToeBase
					{
						OFFSET -0.08699 -0.23900 1.55223
						CHANNELS 3 Zrotation Yrotation Xrotation
						End Site
						{
							OFFSET -0.00000 -0.00000 0.80281
						}
					}
				}
			}
		}
	}
	JOINT LowerBack
	{
		OFFSET 0 0 0
		CHANNELS 3 Zrotation Yrotation Xrotation
		JOINT Spine
		{
			OFFSET 0.01292 1.96517 -0.16495
			CHANNELS 3 Zrotation Yrotation Xrotation
			JOINT Spine1
			{
				OFFSET 0.02122 1.88666 0.19706
				CHANNELS 3 Zrotation Yrotation Xrotation
				JOINT Neck
				{
					OFFSET 0 0 0
					CHANNELS 3 Zrotation Yrotation Xrotation
					JOINT Neck1
					{
						OFFSET -0.01683 1.81591 0.07903
						CHANNELS 3 Zrotation Yrotation Xrotation
						JOINT Head
						{
							OFFSET 0.00815 1.74013 -0.47700
							CHANNELS 3 Zrotation Yrotation Xrotation
							End Site
							{
								OFFSET -0.00204 1.83225 -0.16933
							}
						}
					}
				}
				JOINT LeftShoulder
				{
					OFFSET 0 0 0
					CHANNELS 3 Zrotation Yrotation Xrotation
					JOINT LeftArm
					{
						OFFSET 3.38482 1.41533 0.19802
						CHANNELS 3 Zrotation Yrotation Xrotation
						JOINT LeftForeArm
						{
							OFFSET 4.32712 -0.00000 0.00000
							CHANNELS 3 Zrotation Yrotation Xrotation
							JOINT LeftHand
							{
								OFFSET 3.28587 -0.00000 -0.00000
								CHANNELS 3 Zrotation Yrotation Xrotation
								JOINT LeftFingerBase
								{
									OFFSET 0 0 0
									CHANNELS 3 Zrotation Yrotation Xrotation
									JOINT LeftHandIndex1
									{
										OFFSET 0.43316 -0.00000 -0.00000
										CHANNELS 3 Zrotation Yrotation Xrotation
										End Site
										{
											OFFSET 0.34922 -0.00000 -0.00000
										}
									}
								}
								JOINT LThumb
								{
									OFFSET 0 0 0
									CHANNELS 3 Zrotation Yrotation Xrotation
									End Site
									{
										OFFSET 0.35456 -0.00000 0.35456
									}
								}
							}
						}
					}
				}
				JOINT RightShoulder
				{
					OFFSET 0 0 0
					CHANNELS 3 Zrotation Yrotation Xrotation
					JOINT RightArm
					{
						OFFSET -3.09725 1.62858 -0.14144
						CHANNELS 3 Zrotation Yrotation Xrotation
						JOINT RightForeArm
						{
							OFFSET -4.29104 -0.00000 0.00000
							CHANNELS 3 Zrotation Yrotation Xrotation
							JOINT RightHand
							{
								OFFSET -3.22720 -0.00000 -0.00000
								CHANNELS 3 Zrotation Yrotation Xrotation
								JOINT RightFingerBase
								{
									OFFSET 0 0 0
									CHANNELS 3 Zrotation Yrotation Xrotation
									JOINT RightHandIndex1
									{
										OFFSET -0.54362 -0.00000 -0.00000
										CHANNELS 3 Zrotation Yrotation Xrotation
										End Site
										{
											OFFSET -0.43828 -0.00000 -0.00000
										}
									}
								}
								JOINT RThumb
								{
									OFFSET 0 0 0
									CHANNELS 3 Zrotation Yrotation Xrotation
									End Site
									{
										OFFSET -0.44497 -0.00000 0.44497
									}
								}
							}
						}
					}
				}
			}
		}
	}
}
MOTION
Frames: 16
Frame Time: .0083333
-40.1886 16.3014 1.5523 0 0 0 0 0 0 -21 0 0 0 0 0 0 0 0 0 0 0 0 0 0 21 0 0 0 0 0 0 0 0 0 0 0 0 0 0 0 0 0 0 0 0 0 0 -16 0 0 21 0 0 11 0 0 0 -8 0 0 0 0 0 0 0 0 0 0 0 0 0 0 0 0 0 0 0 0 8 0 0 0 0 0 0 0 0 0 0 0 0 0 0 0 0 0
-40.1886 16.3014 1.5523 -56.4570 85.2211 -44.0691 0.0000 0.0000 0.0000 -27.8956 -27.8659 7.8191 0.0123 0.7170 1.9704 3.6833 4.6892 -38.1103 5.8649 -14.2961 -44.4370 0.0000 0.0000 0.0000 37.8065 26.6785 13.3540 -0.3516 3.8097 -10.5418 0.8373 -22.0581 -24.5125 -0.0214 0.9446 -2.5965 -0.8514 0.9624 9.6801 4.4645 2.5011 -12.5248 5.0278 2.0077 -20.4406 4.8144 3.4923 -18.4177 -7.4178 8.7496 39.8907 -2.3307 3.8248 18.8901 -0.0000 -0.0000 0.0000 -84.8927 21.9865 23.0814 16.1543 -25.7294 -3.7127 -0.0000 -0.0000 6.7860 45.2339 33.6563 29.1944 -7.1250 0.0000 -0.0000 22.1669 72.3156 14.5892 -0.0000 -0.0000 0.0000 67.9149 -25.0029 53.9799 -23.0631 34.1578 -7.1737 0.0000 -0.0000 -11.6729 -30.4940 -16.9369 9.7348 7.1250 -0.0000 -0.0000 -2.6000 -49.4261 0.2839
-40.1896 16.2998 1.5430 -56.0241 85.0795 -43.4975 0.0000 0.0000 0.0000 -27.8173 -28.0415 7.6709 0.0138 0.7590 2.0860 3.8618 3.4199 -38.4777 5.4955 -13.9210 -42.9220 0.0000 0.0000 0.0000 37.8436 26.8878 13.2377 -0.3482 3.7917 -10.4913 0.6783 -21.4872 -24.9638 -0.0048 0.4464 -1.2265 -0.4678 1.0263 9.6142 4.2360 2.6407 -12.6735 4.5010 1.9916 -20.5713 4.8824 3.3582 -18.1724 -7.2438 8.4715 40.0148 -2.3259 3.7622 18.8547 0.0000 0.0000 0.0000 -84.3178 22.0773 23.8181 16.4047 -26.0663 -3.8221 -0.0000 -0.0000 6.2241 42.5335 33.1941 26.6685 -7.1250 0.0000 -0.0000 16.6837 70.9492 10.4161 0.0000 0.0000 0.0000 68.4306 -25.2116 53.8030 -22.9475 34.0313 -7.1089 0.0000 -0.0000 -11.6504 -30.3912 -16.7031 9.5681 7.1250 -0.0000 -0.0000 -2.5249 -49.1447 0.2582
-40.1927 16.3008 1.5351 -56.9136 85.0375 -44.3860 0.0000 0.0000 0.0000 -27.7372 -28.0503 7.6126 0.0142 0.7681 2.1109 3.9605 2.2580 -38.5371 5.1383 -13.5378 -41.4167 0.0000 0.0000 0.0000 37.9036 26.8688 13.2081 -0.3491 3.7960 -10.5035 0.6707 -21.5268 -25.1037 -0.0081 0.5828 -1.6014 -0.2323 0.9547 9.7654 4.1674 2.5794 -12.7109 4.3033 1.9220 -20.7040 4.9176 3.3458 -18.2080 -7.1798 8.4180 40.0944 -2.3150 3.7536 18.9039 0.0000 -0.0000 0.0000 -84.1196 22.0303 23.9257 16.5422 -26.2503 -3.8827 -0.0000 -0.0000 6.0192 39.2820 31.4693 23.1231 -7.1250 0.0000 -0.0000 11.2092 68.0046 6.2255 0.0000 -0.0000 0.0000 68.5327 -25.1783 54.0603 -22.8718 33.9483 -7.0666 0.0000 -0.0000 -11.7228 -30.5106 -16.8160 9.6749 7.1250 -0.0000 -0.0000 -2.6307 -49.2924 0.2786
-40.1966 16.3002 1.5287 -58.2237 84.9825 -45.7442 0.0000 0.0000 0.0000 -27.5459 -27.8631 7.4592 0.0163 0.8238 2.2641 3.9610 0.6666 -38.0256 4.8135 -13.1707 -40.0108 0.0000 0.0000 0.0000 38.0248 26.8035 13.2237 -0.3508 3.8052 -10.5293 0.7895 -22.0412 -24.9341 -0.0264 1.0482 -2.8814 0.1178 0.8902 10.0942 4.0373 2.5527 -12.8109 3.9595 1.8468 -21.0446 4.8917 3.3071 -18.2295 -6.9111 8.2629 40.2324 -2.2176 3.7242 18.9527 0.0000 0.0000 0.0000 -83.7747 22.1127 24.1375 16.6814 -26.4358 -3.9444 -0.0000 -0.0000 5.8009 36.1379 29.7040 19.8922 -7.1250 0.0000 -0.0000 6.8988 65.0921 3.3590 0.0000 0.0000 0.0000 68.7735 -25.3462 54.1252 -22.6998 33.7589 -6.9708 0.0000 -0.0000 -11.6521 -30.4496 -16.5193 9.4894 7.1250 -0.0000 -0.0000 -2.6038 -48.9470 0.2536
-40.1954 16.2996 1.5222 -58.7473 84.9662 -46.3326 0.0000 0.0000 0.0000 -27.5128 -27.7304 7.4267 0.0181 0.8680 2.3855 3.9718 -0.8400 -37.6480 4.4573 -12.7453 -38.4222 0.0000 0.0000 0.0000 38.1110 26.7237 13.3318 -0.3564 3.8354 -10.6142 0.8378 -22.2436 -24.8579 -0.0218 0.9525 -2.6182 0.5438 0.9210 10.6210 3.7085 2.6707 -13.0931 3.2948 1.8057 -21.7815 4.8261 3.1762 -18.0675 -6.2994 7.8725 40.5478 -2.0022 3.6570 19.0055 0.0000 -0.0000 0.0000 -83.0252 22.5530 25.0310 16.9537 -26.7967 -4.0664 -0.0000 -0.0000 5.3668 33.3759 28.4670 17.4326 -7.1250 0.0000 -0.0000 3.5394 62.9412 1.5429 0.0000 -0.0000 0.0000 69.4801 -25.9838 53.6194 -22.3880 33.4127 -6.7983 0.0000 -0.0000 -11.2587 -30.2196 -16.0985 9.1748 7.1250 -0.0000 -0.0000 -2.4235 -48.4338 0.2054
-40.1928 16.3001 1.5135 -58.1621 85.0382 -45.7935 0.0000 0.0000 0.0000 -27.7271 -27.7641 7.5697 0.0174 0.8515 2.3402 4.0485 -2.1169 -37.6991 4.0586 -12.2380 -36.5793 0.0000 0.0000 0.0000 38.0282 26.6744 13.3896 -0.3579 3.8431 -10.6358 0.8033 -22.1087 -24.9302 -0.0083 0.5876 -1.6146 0.5352 0.8329 10.9694 3.6679 2.5746 -13.4493 3.0845 1.7144 -21.9673 4.8994 3.2549 -18.0406 -6.0009 7.8633 40.7089 -1.8754 3.7093 19.0772 0.0000 -0.0000 0.0000 -82.7377 22.7793 25.5922 17.3665 -27.3384 -4.2543 -0.0000 -0.0000 4.7695 28.4262 27.2985 13.9418 -7.1250 0.0000 -0.0000 -2.1282 60.3743 -0.7982 0.0000 -0.0000 0.0000 69.7598 -26.1364 53.5804 -22.0756 33.0624 -6.6271 0.0000 -0.0000 -10.9045 -29.8382 -15.9433 8.9537 7.1250 -0.0000 -0.0000 -2.0664 -48.1973 0.1631
-40.1947 16.2984 1.5031 -57.1115 85.0684 -44.7275 0.0000 0.0000 0.0000 -27.8886 -27.7903 7.5952 0.0159 0.8143 2.2379 4.1582 -3.1685 -37.9928 3.6971 -11.7460 -34.8392 0.0000 0.0000 0.0000 37.8977 26.7546 13.3025 -0.3491 3.7963 -10.5044 0.7319 -21.8292 -25.0815 -0.0020 0.2876 -0.7903 0.4635 0.8665 10.9401 3.6273 2.5978 -13.4584 3.0726 1.7312 -21.9612 4.8455 3.2612 -18.0518 -5.9466 7.8734 40.7197 -1.8370 3.7123 19.0805 0.0000 -0.0000 0.0000 -82.6668 22.5641 25.7762 17.4158 -27.4026 -4.2769 -0.0000 -0.0000 4.5043 27.8254 26.5120 13.2574 -7.1250 0.0000 -0.0000 -2.5164 59.3878 -0.8846 0.0000 -0.0000 0.0000 69.7480 -26.2517 53.4047 -21.8570 32.8150 -6.5082 0.0000 -0.0000 -10.7069 -29.6870 -16.0664 8.9658 7.1250 -0.0000 -0.0000 -1.9039 -48.3115 0.1556
-40.1965 16.2963 1.4947 -56.8873 85.0256 -44.4976 0.0000 0.0000 0.0000 -27.9162 -27.8326 7.5939 0.0154 0.8015 2.2029 4.2415 -4.2630 -38.1749 3.3437 -11.2317 -33.0653 0.0000 0.0000 0.0000 37.8911 26.8218 13.2450 -0.3430 3.7631 -10.4112 0.7814 -22.0406 -25.0087 -0.0085 0.5939 -1.6319 0.5871 0.8809 10.8650 3.4981 2.6027 -13.2327 3.0378 1.7459 -22.1328 4.7476 3.2100 -18.0764 -5.8161 7.7684 40.7424 -1.7793 3.6716 19.0750 0.0000 0.0000 0.0000 -82.5810 22.3836 26.0014 17.5146 -27.5312 -4.3225 -0.0000 -0.0000 4.2065 27.9327 26.6149 13.3617 -7.1250 0.0000 -0.0000 -2.4327 59.5236 -0.8631 0.0000 0.0000 0.0000 69.7341 -26.2822 53.4447 -21.6026 32.5250 -6.3709 0.0000 -0.0000 -10.6737 -29.9546 -16.4643 9.2763 7.1250 -0.0000 -0.0000 -2.1201 -48.8027 0.1989
-40.1970 16.2947 1.4866 -56.8025 84.9712 -44.4233 0.0000 0.0000 0.0000 -27.9346 -27.8882 7.6571 0.0152 0.7964 2.1887 4.2782 -5.5334 -38.1341 2.9974 -10.6909 -31.2442 0.0000 0.0000 0.0000 37.8853 26.8651 13.2140 -0.3401 3.7475 -10.3673 0.9179 -22.5346 -24.6507 -0.0405 1.2982 -3.5698 0.5626 0.9024 10.9098 3.5906 2.6680 -13.4968 2.9520 1.7429 -21.9892 4.5946 3.1095 -18.1194 -5.6164 7.5834 40.8240 -1.6961 3.6010 19.0957 0.0000 -0.0000 0.0000 -82.5387 22.3282 26.2265 17.6620 -27.7222 -4.3909 -0.0000 -0.0000 4.0121 28.2004 27.1568 13.7522 -7.1250 0.0000 -0.0000 -2.3359 60.1670 -0.8646 0.0000 -0.0000 0.0000 69.7693 -26.2957 53.5121 -21.2871 32.1620 -6.2021 0.0000 -0.0000 -10.7159 -29.9978 -16.4366 9.2773 7.1250 -0.0000 -0.0000 -2.1660 -48.7786 0.2020
-40.1963 16.2912 1.4796 -56.9594 84.8878 -44.5956 0.0000 0.0000 0.0000 -27.9126 -27.9673 7.8307 0.0135 0.7505 2.0626 4.2793 -6.7770 -37.9652 2.6763 -10.1517 -29.4692 0.0000 0.0000 0.0000 37.9277 26.9279 13.1610 -0.3316 3.7006 -10.2359 0.9215 -22.4856 -24.5212 -0.0442 1.3564 -3.7300 0.7020 0.9162 10.7372 3.4910 2.6738 -13.2354 2.9440 1.7577 -22.0416 4.4720 3.0882 -18.2227 -5.4473 7.5121 40.8453 -1.6068 3.5716 19.1113 0.0000 -0.0000 0.0000 -82.5075 22.2343 26.4174 17.8328 -27.9426 -4.4706 -0.0000 -0.0000 3.9194 28.2950 27.5894 13.9995 -7.1250 0.0000 -0.0000 -2.4018 60.6513 -0.9167 0.0000 -0.0000 0.0000 69.8196 -26.2420 53.4124 -20.9861 31.8121 -6.0426 0.0000 -0.0000 -10.6843 -29.8483 -15.9576 8.9650 7.1250 -0.0000 -0.0000 -2.0746 -48.2150 0.1646
-40.1913 16.2875 1.4749 -58.2213 84.8165 -45.9553 0.0000 0.0000 0.0000 -27.8631 -28.0084 8.1140 0.0110 0.6768 1.8598 4.2882 -7.8096 -37.8894 2.3824 -9.6209 -27.7577 0.0000 0.0000 0.0000 38.0998 26.8526 13.2230 -0.3248 3.6632 -10.1311 0.8398 -22.1673 -24.6949 -0.0251 1.0224 -2.8104 0.7955 0.8988 10.5412 3.5159 2.6566 -13.1503 2.9261 1.7337 -21.7726 4.4271 3.1164 -18.2233 -5.3473 7.5327 40.8551 -1.5457 3.5863 19.1092 -0.0000 0.0000 0.0000 -82.5193 22.0512 26.3881 17.9075 -28.0386 -4.5057 -0.0000 -0.0000 3.9965 28.3577 27.5556 14.0196 -7.1250 0.0000 -0.0000 -2.3138 60.6311 -0.8820 -0.0000 0.0000 0.0000 69.8970 -26.1574 53.1888 -20.7312 31.5133 -5.9088 0.0000 -0.0000 -10.5909 -29.6681 -15.7177 8.7725 7.1250 -0.0000 -0.0000 -1.9258 -47.9163 0.1386
-40.1853 16.2882 1.4654 -59.2296 84.8609 -47.1391 0.0000 0.0000 0.0000 -28.0540 -28.1186 8.5545 0.0088 0.6059 1.6649 4.2773 -8.6016 -37.7641 2.1078 -9.0872 -26.0684 0.0000 0.0000 0.0000 38.1291 26.6136 13.4120 -0.3285 3.6836 -10.1882 0.7482 -21.8457 -24.9604 -0.0155 0.8051 -2.2127 0.8243 0.8738 10.4066 3.5126 2.6102 -13.0651 2.9186 1.7030 -21.5483 4.4095 3.1150 -18.1234 -5.2851 7.5187 40.8560 -1.5168 3.5910 19.0745 -0.0000 -0.0000 0.0000 -82.5861 21.8664 26.2899 17.9207 -28.0555 -4.5119 -0.0000 -0.0000 4.0696 28.3134 26.9586 13.7251 -7.1250 0.0000 -0.0000 -2.1251 59.9837 -0.7772 -0.0000 -0.0000 0.0000 69.9828 -26.1291 52.9162 -20.4589 31.1913 -5.7671 0.0000 -0.0000 -10.4145 -29.4796 -15.7148 8.7050 7.1250 -0.0000 -0.0000 -1.7424 -47.8834 0.1240
-40.1810 16.2909 1.4506 -59.3337 85.0018 -47.3829 0.0000 0.0000 0.0000 -28.3522 -27.9018 8.7327 0.0082 0.5836 1.6037 4.2667 -10.3169 -37.6012 1.8432 -8.5316 -24.3406 0.0000 0.0000 0.0000 37.9479 26.3725 13.5637 -0.3358 3.7241 -10.3017 0.6909 -21.6666 -25.1667 -0.0132 0.7406 -2.0355 0.7931 0.8372 10.6898 3.4348 2.5586 -13.1707 2.8579 1.6800 -21.8962 4.4129 3.1479 -18.0303 -5.1108 7.5177 40.9452 -1.4345 3.6225 19.0907 -0.0000 0.0000 0.0000 -82.4977 22.1488 26.5190 18.0558 -28.2286 -4.5756 -0.0000 -0.0000 3.8049 28.2387 26.6960 13.5650 -7.1250 0.0000 -0.0000 -2.1099 59.6848 -0.7566 -0.0000 0.0000 0.0000 69.9978 -26.5040 52.7927 -20.2501 30.9425 -5.6594 0.0000 -0.0000 -10.1242 -29.3439 -15.5115 8.5501 7.1250 -0.0000 -0.0000 -1.6340 -47.6342 0.1062
-40.1794 16.2897 1.4394 -59.3813 85.0023 -47.4830 0.0000 0.0000 0.0000 -28.4343 -27.8901 8.8047 0.0081 0.5827 1.6011 4.1833 -11.2428 -37.1780 1.5893 -7.9524 -22.5695 0.0000 0.0000 0.0000 37.9110 26.3214 13.6062 -0.3361 3.7256 -10.3059 0.6467 -21.5530 -25.3683 -0.0051 0.4614 -1.2679 0.7825 0.8263 10.8501 3.4217 2.5576 -13.2696 2.8492 1.6855 -22.1550 4.4206 3.1617 -17.9774 -5.0325 7.5283 41.0431 -1.3963 3.6450 19.1326 0.0000 -0.0000 0.0000 -82.4248 22.4426 26.7803 18.1957 -28.4070 -4.6420 -0.0000 -0.0000 3.4859 28.5177 27.1060 13.9053 -7.1250 0.0000 -0.0000 -1.9441 60.1917 -0.7206 0.0000 -0.0000 0.0000 69.8510 -26.9382 52.8117 -20.2278 30.9158 -5.6479 0.0000 -0.0000 -10.0601 -29.6053 -15.9302 8.8640 7.1250 -0.0000 -0.0000 -1.8399 -48.1454 0.1428
-40.1816 16.2851 1.4318 -59.0371 84.9042 -47.1341 0.0000 0.0000 0.0000 -28.3804 -27.8287 8.7663 0.0082 0.5858 1.6097 4.0996 -12.7274 -36.7741 1.1661 -6.8550 -19.2865 0.0000 0.0000 0.0000 37.9733 26.4303 13.5755 -0.3289 3.6858 -10.1945 0.6251 -21.5227 -25.5096 -0.0003 0.1128 -0.3100 0.8460 0.8548 10.4462 3.4217 2.5678 -13.0584 2.8089 1.6667 -21.5555 4.4751 3.1876 -18.3143 -5.1290 7.5188 40.8702 -1.4504 3.6140 19.1284 -0.0000 -0.0000 0.0000 -82.4259 21.9578 26.6861 18.1799 -28.3869 -4.6345 -0.0000 -0.0000 3.4616 28.8372 27.5581 14.2913 -7.1250 0.0000 -0.0000 -1.7472 60.7549 -0.6710 -0.0000 -0.0000 0.0000 69.8803 -26.6283 52.6641 -20.1762 30.8540 -5.6214 0.0000 -0.0000 -10.2666 -30.3393 -16.9035 9.6578 7.1250 -0.0000 -0.0000 -2.4495 -49.3619 0.2636
